<?xml version="1.0" standalone="no"?>
<!DOCTYPE svg PUBLIC "-//W3C//DTD SVG 20010904//EN"
 "http://www.w3.org/TR/2001/REC-SVG-20010904/DTD/svg10.dtd">
<svg version="1.0" xmlns="http://www.w3.org/2000/svg"
 width="1078.000000pt" height="477.000000pt" viewBox="0 0 1078.000000 477.000000"
 preserveAspectRatio="xMidYMid meet">
<metadata>
Created by potrace 1.16, written by Peter Selinger 2001-2019
</metadata>
<g transform="translate(0.000000,477.000000) scale(0.100000,-0.100000)"
fill="#000000" stroke="none">
<path d="M5382 2514 l3 -296 33 -29 c29 -26 39 -29 102 -29 l70 0 0 55 0 55
-50 0 -50 0 0 270 0 270 -55 0 -56 0 3 -296z"/>
<path d="M6756 2801 c-4 -6 -5 -135 -2 -287 4 -255 6 -279 23 -303 11 -14 31
-32 44 -38 33 -17 209 -18 209 0 0 8 4 7 10 -3 7 -11 10 2 10 43 l0 57 -89 0
c-77 0 -90 3 -95 18 -3 9 -4 69 -3 132 l2 115 91 3 c101 3 104 5 104 79 l0 32
-97 3 -98 3 0 75 0 75 -52 3 c-28 2 -54 -2 -57 -7z"/>
<path d="M553 2750 c-58 -35 -63 -56 -63 -285 0 -314 -9 -305 307 -305 236 1
249 3 284 56 17 26 19 48 19 247 0 244 -4 262 -64 291 -28 13 -70 16 -243 16
-189 0 -211 -2 -240 -20z m435 -287 l2 -193 -195 0 -195 0 0 188 c0 104 3 192
7 196 4 3 90 5 192 4 l186 -3 3 -192z"/>
<path d="M3672 2750 c-49 -30 -65 -77 -60 -182 3 -84 4 -89 36 -120 l32 -33
213 -5 212 -5 3 -67 3 -68 -196 0 -195 0 0 25 c0 24 -3 25 -55 25 -55 0 -55 0
-55 -31 0 -44 25 -92 59 -112 25 -15 59 -17 246 -17 240 0 258 4 290 65 14 24
16 51 14 128 -4 94 -5 98 -37 129 l-32 33 -216 3 -215 3 3 67 3 67 190 0 189
0 6 -25 c5 -23 11 -25 59 -27 l53 -1 -4 50 c-4 39 -12 57 -37 81 l-31 32 -223
3 c-209 2 -224 1 -255 -18z"/>
<path d="M1440 2405 l0 -245 55 0 55 0 0 190 0 190 140 0 140 0 0 -190 0 -190
39 0 c22 0 42 5 44 13 4 10 6 10 6 0 1 -7 5 -13 10 -13 5 0 8 92 7 204 -1 191
-2 206 -22 233 -37 49 -53 53 -271 53 l-203 0 0 -245z"/>
<path d="M2345 2639 c-59 -35 -66 -55 -66 -211 -1 -209 -3 -196 35 -234 l34
-34 209 0 c115 0 212 2 214 4 2 2 2 27 1 55 l-4 51 -194 0 -193 0 2 38 2 37
193 3 193 2 -2 114 c-1 109 -2 116 -29 148 l-28 33 -173 3 c-119 1 -180 -1
-194 -9z m323 -142 l3 -38 -143 3 -143 3 -3 38 -3 38 143 -3 143 -3 3 -38z"/>
<path d="M4612 2635 c-52 -23 -62 -61 -62 -235 0 -237 3 -240 247 -240 l173 0
38 34 37 34 0 176 0 176 -33 32 -32 33 -168 2 c-129 2 -174 0 -200 -12z m326
-232 l3 -133 -141 0 -140 0 0 135 0 136 138 -3 137 -3 3 -132z"/>
<path d="M5920 2439 l0 -211 35 -35 34 -34 180 3 c252 4 251 3 251 298 l0 190
-54 0 c-43 0 -55 -4 -58 -17 -3 -10 -3 -96 -1 -190 l4 -173 -140 0 -141 0 0
190 0 190 -55 0 -55 0 0 -211z"/>
<path d="M7374 2405 l0 -245 53 0 53 0 -1 245 -1 245 -52 0 -51 0 -1 -245z"/>
<path d="M7873 2634 c-53 -26 -63 -63 -63 -227 0 -157 6 -185 46 -222 26 -24
30 -25 191 -25 255 0 258 3 258 245 0 181 -6 204 -60 230 -47 22 -326 21 -372
-1z m325 -231 l3 -133 -141 0 -140 0 -1 83 c-1 45 -2 102 -3 127 -1 25 0 48 2
53 2 4 65 6 140 5 l137 -3 3 -132z"/>
<path d="M8640 2406 l0 -246 55 0 55 0 0 190 0 190 140 0 140 0 2 -187 3 -188
47 -3 c60 -4 58 -10 55 230 l-2 188 -33 32 -32 33 -215 3 -215 3 0 -245z"/>
<path d="M9541 2637 c-49 -25 -66 -62 -65 -144 0 -74 1 -76 37 -109 l37 -34
155 0 155 0 0 -40 0 -40 -139 0 c-114 0 -140 3 -145 15 -6 17 -91 22 -101 5
-13 -20 17 -86 49 -108 30 -20 44 -22 195 -22 179 0 209 7 236 60 20 38 20
142 0 180 -25 48 -47 55 -215 60 l-155 5 0 35 0 35 138 3 c117 2 137 0 137
-13 0 -12 12 -15 55 -15 52 0 55 1 55 25 0 39 -27 83 -60 100 -38 20 -332 22
-369 2z"/>
</g>
</svg>
